# xmcd
#
# Track frame offsets: 
#        150
#        21014
#        37734
#        56201
#        72937
#        86662
#        103075
#        122553
#        141180
#        160799
#
# Disc length: 2366 seconds
#
# Revision: 0
# Processed by: cddbd v1.5.2PL0 Copyright (c) Steve Scherf et al.
# Submitted via: ExactAudioCopy v1.0b1
#
DISCID=80093c0a
DTITLE=Curtis Pruett - This One's Mine
DYEAR=1900
DGENRE=
TTITLE0=Mercy In The Garden
TTITLE1=Come Holy Spirit
TTITLE2=This One's Mine
TTITLE3=God Wrote The Book
TTITLE4=He's Never Late
TTITLE5=Pardon Me
TTITLE6=For Crying Out Loud
TTITLE7=The "Son" In My Eyes
TTITLE8=I Love You
TTITLE9=His Love Is Wonderful
EXTD=
EXTT0=
EXTT1=
EXTT2=
EXTT3=
EXTT4=
EXTT5=
EXTT6=
EXTT7=
EXTT8=
EXTT9=
PLAYORDER=
